<svg id="visual" viewBox="0 0 900 600" width="900" height="600" xmlns="http://www.w3.org/2000/svg" xmlns:xlink="http://www.w3.org/1999/xlink" version="1.1"><rect width="900" height="600" fill="#141313"></rect><g><g transform="translate(222 3)"><path d="M0 -147L103.9 -103.9L147 0L103.9 103.9L0 147L-103.9 103.9L-147 0L-103.9 -103.9Z" fill="none" stroke="#009473" stroke-width="2"></path></g><g transform="translate(538 265)"><path d="M0 -130L91.9 -91.9L130 0L91.9 91.9L0 130L-91.9 91.9L-130 0L-91.9 -91.9Z" fill="none" stroke="#009473" stroke-width="2"></path></g><g transform="translate(620 559)"><path d="M0 -80L56.6 -56.6L80 0L56.6 56.6L0 80L-56.6 56.6L-80 0L-56.6 -56.6Z" fill="none" stroke="#009473" stroke-width="2"></path></g><g transform="translate(32 312)"><path d="M0 -137L96.9 -96.9L137 0L96.9 96.9L0 137L-96.9 96.9L-137 0L-96.9 -96.9Z" stroke="#009473" fill="none" stroke-width="2"></path></g><g transform="translate(833 120)"><path d="M0 -75L53 -53L75 0L53 53L0 75L-53 53L-75 0L-53 -53Z" stroke="#009473" fill="none" stroke-width="2"></path></g><g transform="translate(265 571)"><path d="M0 -85L60.1 -60.1L85 0L60.1 60.1L0 85L-60.1 60.1L-85 0L-60.1 -60.1Z" stroke="#009473" fill="none" stroke-width="2"></path></g><g transform="translate(899 456)"><path d="M0 -116L82 -82L116 0L82 82L0 116L-82 82L-116 0L-82 -82Z" stroke="#009473" fill="none" stroke-width="2"></path></g></g></svg>